<svg xmlns="http://www.w3.org/2000/svg" width="25" height="25" fill="none"><mask id="a" width="25" height="25" x="0" y="0" maskUnits="userSpaceOnUse" style="mask-type:alpha"><path fill="#fff" stroke="#000" d="M12.5.5c6.627 0 12 5.373 12 12s-5.373 12-12 12-12-5.373-12-12 5.373-12 12-12Z"/></mask><g mask="url(#a)"><path fill="#000" d="M0 7.5s8.67-2.2 12-2c3.578.215 4.48 4.886 8 5.5s9.5-.5 9.5-.5l-4.5 15H0z"/><path stroke="#fff" d="M-3.644 12.356S3.91 9.696 8.5 10.5c4.002.702 5.534 3.619 9.5 4.5 3.806.846 9.791.793 9.791.793M-5.942 15.922S2.944 14.033 8 15c3.783.723 5.698 3.386 9.5 4 3.428.553 7.993.36 7.993.36M-5.097 19.832S2.026 18.026 6.5 19c2.65.577 5.357 2.39 8 3 5 1.154 11.838 1.269 11.838 1.269"/><circle cx="12.5" cy="12.5" r="12" stroke="#000"/></g></svg>